<svg xmlns="http://www.w3.org/2000/svg" xmlns:xlink="http://www.w3.org/1999/xlink" viewBox="0 0 400 400" role="img" aria-label="Character with glasses and a laptop"><defs><clipPath id="frame"><rect width="400" height="400" rx="56"/></clipPath><linearGradient id="bg" x1="0" y1="0" x2="0" y2="1"><stop offset="0" stop-color="#E3F7EF"/><stop offset="1" stop-color="#BDE8D8"/></linearGradient><linearGradient id="hair" x1="0" y1="0" x2="0" y2="1"><stop offset="0" stop-color="#BD8661"/><stop offset="1" stop-color="#7E4E37"/></linearGradient><linearGradient id="skin" x1="0" y1="0" x2="0" y2="1"><stop offset="0" stop-color="#FFE9DC"/><stop offset="1" stop-color="#FAD0BC"/></linearGradient><linearGradient id="tee" x1="0" y1="0" x2="0" y2="1"><stop offset="0" stop-color="#FFFFFF"/><stop offset="1" stop-color="#E9F0EE"/></linearGradient><radialGradient id="iris" cx="0.5" cy="0.3" r="0.85"><stop offset="0" stop-color="#C79A78"/><stop offset="1" stop-color="#6A4432"/></radialGradient><linearGradient id="lid" x1="0" y1="0" x2="0" y2="1"><stop offset="0" stop-color="#E4E8F0"/><stop offset="1" stop-color="#C5CCDA"/></linearGradient></defs><g clip-path="url(#frame)"><rect width="400" height="400" fill="url(#bg)"/><circle cx="200" cy="190" r="150" fill="#fff" opacity=".35"/><text x="40" y="84" font-family="monospace" font-size="28" font-weight="700" fill="#fff" opacity=".85">&lt;/&gt;</text><text x="316" y="300" font-family="monospace" font-size="24" font-weight="700" fill="#fff" opacity=".8">{ }</text><path transform="translate(348 92) scale(1.2)" d="M0 -12l4 8 8 4-8 4-4 8-4-8-8-4 8-4z" fill="#fff" opacity="1"/><path transform="translate(54 250) scale(0.8)" d="M0 -12l4 8 8 4-8 4-4 8-4-8-8-4 8-4z" fill="#fff" opacity="0.9"/><circle cx="268" cy="62" r="36" fill="url(#hair)"/><circle cx="268" cy="62" r="36" fill="none" stroke="#7E4E37" stroke-width="2" opacity=".25"/><path d="M200 64C118 64 82 130 88 212C92 272 78 332 62 396L338 396C322 332 308 272 312 212C318 130 282 64 200 64Z" fill="url(#hair)"/><path d="M178 290L178 324Q200 338 222 324L222 290Z" fill="url(#skin)"/><path d="M92 402C96 342 148 318 200 318C252 318 304 342 308 402Z" fill="url(#tee)"/><path d="M102 205C102 140 150 118 200 118C250 118 298 140 298 205C298 262 252 300 200 300C148 300 102 262 102 205Z" fill="url(#skin)"/><ellipse cx="130" cy="254" rx="21" ry="12" fill="#FF9AA8" opacity="0.5"/><ellipse cx="270" cy="254" rx="21" ry="12" fill="#FF9AA8" opacity="0.5"/><g transform="translate(152 224) scale(0.88)"><ellipse rx="27" ry="31" fill="#fff" stroke="#3A2E3F" stroke-width="2"/><ellipse cy="2" rx="21" ry="26" fill="url(#iris)"/><ellipse cy="3" rx="11" ry="14" fill="#1E2430"/><ellipse cy="15" rx="14" ry="8" fill="#fff" opacity=".2"/><circle cx="-8" cy="-9" r="6.5" fill="#fff"/><circle cx="8" cy="10" r="3.2" fill="#fff" opacity=".9"/><path d="M-30 -6Q0 -44 30 -6" fill="none" stroke="#3A2E3F" stroke-width="5.5" stroke-linecap="round"/><path d="M-30 -6l-7 -3" fill="none" stroke="#3A2E3F" stroke-width="4.5" stroke-linecap="round"/></g><g transform="translate(248 224) scale(0.88)"><ellipse rx="27" ry="31" fill="#fff" stroke="#3A2E3F" stroke-width="2"/><ellipse cy="2" rx="21" ry="26" fill="url(#iris)"/><ellipse cy="3" rx="11" ry="14" fill="#1E2430"/><ellipse cy="15" rx="14" ry="8" fill="#fff" opacity=".2"/><circle cx="-8" cy="-9" r="6.5" fill="#fff"/><circle cx="8" cy="10" r="3.2" fill="#fff" opacity=".9"/><path d="M-30 -6Q0 -44 30 -6" fill="none" stroke="#3A2E3F" stroke-width="5.5" stroke-linecap="round"/><path d="M30 -6l7 -3" fill="none" stroke="#3A2E3F" stroke-width="4.5" stroke-linecap="round"/></g><path d="M198 247q2 4 6 2" fill="none" stroke="#D78F7E" stroke-width="2.5" stroke-linecap="round"/><path d="M184 266Q200 292 216 266Z" fill="#E2677A"/><ellipse cx="200" cy="277" rx="8" ry="4.5" fill="#FF9EAA"/><ellipse cx="196" cy="172" rx="84" ry="15" fill="#D79F88" opacity=".17"/><path d="M94 208C86 118 140 76 204 78C270 80 318 124 306 208C294 168 264 138 232 132C216 150 190 160 160 162C130 166 106 184 94 208Z" fill="url(#hair)"/><g fill="none" stroke="#6B3F2C" stroke-width="2.4" stroke-linecap="round" opacity="0.35"><path d="M150 96Q124 150 110 206"/><path d="M178 84Q150 120 134 160"/><path d="M248 86Q282 120 292 170"/><path d="M214 82Q196 110 176 134"/><path d="M120 130Q104 170 100 214"/><path d="M288 130Q302 170 300 214"/><path d="M112 240Q106 300 96 360"/><path d="M288 240Q294 300 304 360"/><path d="M138 250Q132 310 120 370"/><path d="M262 250Q268 310 280 370"/><path d="M100 260Q92 320 80 376"/><path d="M300 260Q308 320 320 376"/><path d="M120 270Q118 320 108 380"/><path d="M280 270Q282 320 292 380"/></g><g fill="none" stroke="#6B3F2C" stroke-width="1.4" stroke-linecap="round" opacity="0.27999999999999997"><path d="M164 90Q140 130 124 176"/><path d="M232 86Q262 118 280 160"/><path d="M128 220Q120 280 112 340"/><path d="M272 220Q280 280 288 340"/></g><path d="M132 112Q200 82 272 114" fill="none" stroke="#fff" stroke-width="11" stroke-linecap="round" opacity="0.3"/><path d="M296 262Q302 316 310 368" fill="none" stroke="#fff" stroke-width="8" stroke-linecap="round" opacity="0.21"/><path d="M104 262Q98 316 90 368" fill="none" stroke="#fff" stroke-width="6" stroke-linecap="round" opacity="0.15"/><path d="M94 200C80 262 90 332 66 398L128 398C122 332 130 270 124 226Z" fill="url(#hair)"/><path d="M306 200C320 262 310 332 334 398L272 398C278 332 270 270 276 226Z" fill="url(#hair)"/><g fill="#fff" fill-opacity=".14" stroke="#2F3A5F" stroke-width="5"><circle cx="152" cy="222" r="38"/><circle cx="248" cy="222" r="38"/></g><path d="M188 216Q200 208 212 216M114 216L98 210M286 216L302 210" fill="none" stroke="#2F3A5F" stroke-width="5" stroke-linecap="round"/><path d="M128 204Q142 194 156 198" fill="none" stroke="#fff" stroke-width="4" stroke-linecap="round" opacity=".7"/><path d="M224 204Q238 194 252 198" fill="none" stroke="#fff" stroke-width="4" stroke-linecap="round" opacity=".7"/><rect x="104" y="334" width="192" height="100" rx="14" fill="url(#lid)" stroke="#3A2E3F" stroke-width="4"/><path transform="translate(200 372) scale(1.5)" d="M0 -12l4 8 8 4-8 4-4 8-4-8-8-4 8-4z" fill="#fff" opacity="1"/><circle cx="132" cy="352" r="6" fill="#F28B7A"/><circle cx="268" cy="356" r="5" fill="#8E7CC3"/></g></svg>